<?xml version="1.0" encoding="utf-8"?>
<!-- Generator: Adobe Illustrator 16.0.4, SVG Export Plug-In . SVG Version: 6.00 Build 0)  -->
<!DOCTYPE svg PUBLIC "-//W3C//DTD SVG 1.1//EN" "http://www.w3.org/Graphics/SVG/1.1/DTD/svg11.dtd">
<svg version="1.1" id="Layer_1" xmlns="http://www.w3.org/2000/svg" xmlns:xlink="http://www.w3.org/1999/xlink" x="0px" y="0px"
	 width="200.0px" height="200.0px" viewBox="0 0 200 200" enable-background="new 0 0 200 200"
	 xml:space="preserve">
<colortri points=" 1 11 188 13 118 13" colors="0.06426 0.344 0.98917 0.97071 0.91 0.63074 0.52 0.10 0.40 0.8374 0.2 0.653"/>
<colortri points="104 179  36 172 130 17" colors="0.6807 0.20546 0.1 0.4 0.4 0.1 0.1412 0.067 0.6780 0.35 0.8 0.642"/>
<colortri points="105 187 18  4 16 10" colors="0.5 0.745 0.5579 0.8624 0.6 0.62950 0.51 0.0 0.68469 0.3599 0.001 0.22635"/>
<colortri points=" 32 12  4 159  7  4" colors="0.5 0.86144 0.24 0.7055 0.0740 0.9 0.9 0.6179 0.748 0.50019 0.5 0.8"/>
<colortri points="13 169  24  3 17 177" colors="0.746 0.72862 0.4723 0.9 0.6932 0.03988 0.06 0.0 0.37 0.36 0.44 0.6"/>
<colortri points="177  95  85 11 127  85" colors="0.79 0.97 0.28 0.7 0.08314 0.298 0.55201 0.0 0.786 0.69 0.53 0.44142"/>
<colortri points=" 33 188  8  43  7  68" colors="0.320 0.70 0.137 0.74413 0.85323 0.8609 0.688 0.2 0.95889 0.89437 0.4415 0.657"/>
<colortri points="154 155 11  3 18  4" colors="0.26 0.849 0.1596 0.5 0.13551 0.322 0.72 0.4982 0.0 0.2 0.01989 0.703"/>
<colortri points="151  1  0  70  9 12" colors="0.86166 0.95 0.77 0.97642 0.2 0.710 0.99048 0.5 0.40125 0.9 0.5 0.5261"/>
<colortri points="163  9  7  63  72  51" colors="0.2 0.136 0.2673 0.305 0.44521 0.54073 0.85 0.967 0.7 0.23 0.9 0.470"/>
<colortri points="15  2 12  5  5  0" colors="0.50 0.891 0.0983 0.03493 0.715 0.79805 0.5 0.77445 0.3738 0.36 0.4104 0.6076"/>
<colortri points=" 3 160  54 144  60 16" colors="0.99738 0.66947 0.762 0.604 0.843 0.263 0.54826 0.7140 0.75 0.18866 0.148 0.11"/>
<colortri points=" 62  6 111  6 18 108" colors="0.852 0.01728 0.8 0.89 0.682 0.9441 0.50692 0.07 0.441 0.49 0.94 0.663"/>
<colortri points=" 27 170 153  76 164  7" colors="0.99860 0.44 0.73 0.7 0.0 0.65746 0.03969 0.61 0.9 0.91216 0.45 0.7"/>
<colortri points="105 16 19  62  96 12" colors="0.960 0.03 0.77 0.989 0.71 0.248 0.237 0.87363 0.49 0.655 0.12 0.8836"/>
<colortri points="173  3  24  17  50 10" colors="0.2786 0.80276 0.448 0.6825 0.401 0.5318 0.58 0.26 0.87540 0.15572 0.1951 0.00"/>
<colortri points=" 1  8  92  96 11  2" colors="0.798 0.1 0.16 0.60 0.15446 0.3 0.7 0.121 0.9928 0.73621 0.5234 0.0"/>
<colortri points="160  35  55  6 15 12" colors="0.1 0.2 0.43 0.41845 0.5544 0.9 0.63 0.5434 0.0276 0.687 0.74910 0.592"/>
<colortri points=" 29 18  98 120 108  7" colors="0.571 0.1016 0.9637 0.67 0.20 0.74809 0.1 0.9 0.87 0.0094 0.6 0.183"/>
<colortri points=" 09  36  8 167 14 14" colors="0.72 0.75947 0.69 0.3 0.62 0.1 0.91 0.36 0.317 0.54 0.1733 0.361"/>
<colortri points="140  33  6 10 154  3" colors="0.9090 0.7266 0.7 0.2938 0.3 0.934 0.85 0.76 0.82 0.1425 0.1 0.2511"/>
<colortri points="12 134  8  50 19 17" colors="0.0 0.61638 0.4 0.27 0.9166 0.2 0.6 0.986 0.51535 0.6 0.3 0.0"/>
<colortri points="127  2 121 153  0 12" colors="0.34951 0.35 0.0 0.451 0.99316 0.6 0.27 0.543 0.40983 0.4 0.044 0.910"/>
<colortri points="148 10  14 192 193  38" colors="0.688 0.617 0.4 0.059 0.97395 0.2352 0.4980 0.23758 0.7702 0.1 0.0346 0.30651"/>
<colortri points="14  9  23  7 127 182" colors="0.70 0.51 0.60989 0.388 0.3 0.95145 0.797 0.799 0.74 0.317 0.20124 0.965"/>
<colortri points=" 51  9  96  40  3  96" colors="0.82 0.743 0.5 0.486 0.610 0.7097 0.3599 0.4116 0.5447 0.9 0.33 0.6"/>
<colortri points=" 74 154  3  0 18  0" colors="0.3 0.68567 0.4677 0.00 0.354 0.00 0.5 0.8 0.84656 0.867 0.8 0.56"/>
<colortri points=" 90  5  78  80 124 152" colors="0.12 0.534 0.98 0.257 0.938 0.1 0.1455 0.859 0.7 0.3 0.24272 0.547"/>
<colortri points="127  2  5 160  75 14" colors="0.9008 0.32996 0.86 0.5159 0.52046 0.63 0.27270 0.8 0.8796 0.01 0.47181 0.54"/>
<colortri points="130  87  35  91  6  27" colors="0.18291 0.23701 0.3 0.72933 0.97 0.1 0.5571 0.345 0.6 0.51 0.116 0.6974"/>
<colortri points=" 79 136  05  87 108 139" colors="0.331 0.47 0.286 0.3015 0.6 0.8 0.799 0.0 0.980 0.015 0.1 0.02"/>
<colortri points="14  02  0 19  0 175" colors="0.2 0.9095 0.46 0.5790 0.52557 0.37143 0.79656 0.4698 0.6611 0.06 0.5626 0.57"/>
<colortri points=" 03 174 117 107 130 128" colors="0.14 0.9 0.33961 0.91 0.30 0.411 0.4 0.93 0.3 0.0 0.4394 0.3"/>
<colortri points="15  2 11 164  0 170" colors="0.170 0.532 0.1 0.2762 0.85590 0.82 0.655 0.0 0.364 0.1 0.018 0.1074"/>
<colortri points=" 93 139  24  75 127 10" colors="0.9 0.769 0.9 0.8 0.490 0.0931 0.464 0.08546 0.3675 0.85 0.203 0.1697"/>
<colortri points="14 158 187 139 197 107" colors="0.071 0.0 0.9 0.03668 0.6 0.36685 0.80 0.8964 0.9 0.89264 0.5 0.19"/>
<colortri points="199  97 102  13  7 198" colors="0.07 0.73501 0.57319 0.01817 0.545 0.21 0.154 0.4227 0.26196 0.3 0.77853 0.9"/>
<colortri points=" 2  7  1 134  79  4" colors="0.1690 0.839 0.34700 0.7544 0.3 0.14 0.1466 0.09 0.2971 0.740 0.72 0.17623"/>
<colortri points=" 7 17 180  08 162 173" colors="0.0014 0.4725 0.08 0.43 0.03 0.87008 0.48983 0.9649 0.672 0.446 0.4 0.0325"/>
<colortri points="129  01  2  42 111  66" colors="0.1 0.36 0.93899 0.66 0.62852 0.90 0.1066 0.00165 0.68514 0.23272 0.133 0.44460"/>
<colortri points="125 138  3  21  1 16" colors="0.9 0.076 0.374 0.058 0.07 0.409 0.393 0.34640 0.25 0.68 0.7309 0.531"/>
<colortri points="165  8  8 103  06  29" colors="0.61 0.16758 0.7 0.8 0.629 0.561 0.8 0.32 0.88 0.1140 0.58 0.9"/>
<colortri points="127  1  3 15  76  71" colors="0.68734 0.4743 0.84 0.89 0.5 0.574 0.8207 0.88 0.05 0.425 0.9 0.750"/>
<colortri points=" 9  4  65  4 104  2" colors="0.66 0.1 0.77 0.4985 0.3 0.64 0.077 0.1 0.1 0.38 0.0 0.5376"/>
<colortri points="180  07 12 19  68 195" colors="0.1409 0.76 0.994 0.7 0.590 0.178 0.2 0.97988 0.464 0.9 0.5 0.58"/>
<colortri points="16 114 163 174 109 16" colors="0.58 0.857 0.8 0.13 0.44745 0.5 0.5 0.53589 0.0 0.7397 0.07 0.75"/>
<colortri points=" 1  53  22 198  6 100" colors="0.93901 0.19 0.945 0.6694 0.48 0.3 0.23375 0.826 0.466 0.20535 0.598 0.60242"/>
<colortri points=" 2  1 18 10  21  8" colors="0.3 0.49980 0.881 0.48 0.6334 0.4275 0.3 0.71106 0.92 0.0688 0.46 0.5457"/>
<colortri points="171 12  8 146 111  9" colors="0.262 0.68566 0.0 0.9088 0.3075 0.230 0.200 0.98605 0.1188 0.61 0.842 0.7673"/>
<colortri points="12 186 113 18  3 17" colors="0.5 0.4 0.0138 0.71 0.3464 0.82 0.72080 0.979 0.66 0.0659 0.392 0.685"/>
<colortri points=" 07 195  83 129 11 117" colors="0.2536 0.169 0.0 0.17 0.2 0.2444 0.6235 0.3 0.73042 0.86 0.66 0.0"/>
<colortri points="103 185 178  8 175  1" colors="0.7 0.90451 0.8 0.478 0.34 0.9 0.31 0.710 0.22657 0.47710 0.72816 0.47403"/>
<colortri points="13 127 102  3  3 129" colors="0.9 0.3 0.68 0.79 0.456 0.8839 0.7 0.59024 0.1960 0.99534 0.682 0.5281"/>
<colortri points="109 117 13 10  5 195" colors="0.242 0.262 0.9 0.739 0.57 0.272 0.67 0.2 0.63 0.81 0.49 0.19"/>
<colortri points=" 3 18  70 194  7  5" colors="0.23 0.81 0.4 0.12191 0.272 0.1 0.1010 0.245 0.69 0.8 0.6131 0.57"/>
<colortri points=" 0  65  87  3  21  57" colors="0.66664 0.4020 0.8 0.57030 0.0 0.2795 0.470 0.149 0.61725 0.6 0.5 0.07107"/>
<colortri points="16  00  29 19  0  27" colors="0.8 0.034 0.29247 0.8 0.0337 0.6248 0.7 0.129 0.52 0.5181 0.59 0.2007"/>
<colortri points=" 87  62 11 195  67  69" colors="0.89 0.19 0.2 0.01 0.369 0.08972 0.9361 0.5534 0.80680 0.77718 0.8105 0.2035"/>
<colortri points=" 45 189  25 133 16 143" colors="0.5701 0.3556 0.8 0.916 0.53869 0.9745 0.4161 0.419 0.6179 0.82 0.7 0.289"/>
<colortri points=" 35 157  1 18  35  72" colors="0.297 0.6 0.47887 0.91455 0.836 0.87572 0.738 0.6990 0.43752 0.669 0.493 0.87421"/>
<colortri points="18  63  3 16 147  11" colors="0.441 0.13418 0.7470 0.425 0.354 0.5 0.46 0.1 0.4337 0.67392 0.66115 0.4"/>
<colortri points=" 36 19  94 150 10 14" colors="0.895 0.99923 0.8160 0.0022 0.84 0.1294 0.311 0.881 0.0 0.418 0.52 0.37198"/>
<colortri points="183  39 10  42  48 10" colors="0.5202 0.97735 0.404 0.2 0.56 0.0130 0.08 0.6568 0.26 0.6 0.6351 0.79"/>
<colortri points=" 3 166 17  25 149 14" colors="0.95176 0.21 0.1 0.15032 0.7 0.1690 0.235 0.5872 0.827 0.17 0.5 0.663"/>
<colortri points=" 73 14  41  0 164 12" colors="0.03794 0.59 0.61 0.5 0.1 0.4 0.81537 0.19349 0.484 0.3 0.7 0.45"/>
<colortri points="15  20 158  07 11  78" colors="0.60 0.85560 0.32078 0.1 0.67 0.0910 0.2 0.2 0.64 0.74026 0.0 0.6783"/>
<colortri points=" 66  0  97  6 107  55" colors="0.8 0.89 0.52 0.7 0.807 0.36 0.091 0.2986 0.69 0.255 0.07 0.8"/>
<colortri points=" 4 18 172 154  49  80" colors="0.11 0.3 0.1608 0.41672 0.1 0.781 0.8836 0.2 0.604 0.66962 0.35 0.468"/>
<colortri points="11  73 11 13  72  26" colors="0.190 0.5795 0.88 0.66125 0.6362 0.2 0.95 0.7 0.684 0.8512 0.8598 0.77612"/>
<colortri points="11  5  17  9 17 121" colors="0.616 0.9442 0.939 0.4598 0.11365 0.57 0.202 0.745 0.70633 0.782 0.27 0.19569"/>
<colortri points="19 18  40 18  85  3" colors="0.42 0.57812 0.53603 0.6 0.87 0.35015 0.0 0.8 0.67553 0.2447 0.06 0.58"/>
<colortri points="115  3 148  40  69 178" colors="0.71530 0.0 0.50965 0.46 0.77382 0.2298 0.167 0.848 0.2233 0.0 0.8 0.866"/>
<colortri points="14  8 18 182 114 18" colors="0.76036 0.5 0.0 0.45 0.18243 0.738 0.00150 0.57 0.5742 0.22982 0.345 0.1812"/>
<colortri points="15  16  05 12  01  0" colors="0.46 0.2 0.39252 0.29198 0.37 0.0 0.90327 0.05702 0.38092 0.93 0.05262 0.3291"/>
<colortri points=" 57  07  84  89 19 104" colors="0.86980 0.2 0.79 0.20118 0.732 0.89 0.4693 0.409 0.6 0.182 0.92365 0.2"/>
<colortri points="17 140  04  71 183  7" colors="0.98280 0.65 0.9 0.6 0.2 0.00 0.35 0.0481 0.65 0.067 0.63814 0.1733"/>
<colortri points=" 5 146  91  9 145 175" colors="0.73771 0.99 0.17 0.62236 0.4 0.4580 0.59204 0.7267 0.643 0.34 0.7603 0.55"/>
<colortri points=" 84 136 165 19 181  10" colors="0.9632 0.6405 0.980 0.6630 0.96045 0.166 0.7 0.0780 0.94 0.23 0.22 0.1327"/>
<colortri points=" 7 175  80  11 16 10" colors="0.0224 0.530 0.2225 0.66807 0.3668 0.1527 0.3827 0.04703 0.095 0.23425 0.22 0.52"/>
<colortri points=" 60  94 19  0 16  24" colors="0.0 0.2734 0.0191 0.0 0.00 0.14 0.6 0.388 0.90378 0.5882 0.05 0.30348"/>
<colortri points=" 2 14  4 108 107  99" colors="0.90 0.5523 0.84069 0.51 0.7 0.6 0.4 0.72996 0.0517 0.4738 0.44015 0.0"/>
<colortri points=" 3 176  8 132  60  86" colors="0.4 0.0401 0.230 0.9 0.4425 0.34 0.6 0.43 0.1 0.51615 0.7286 0.72"/>
<colortri points="164  12 171  78  06 17" colors="0.6 0.9398 0.2 0.59 0.7 0.9 0.7 0.46675 0.569 0.177 0.41 0.12188"/>
<colortri points="10  37 168 10  3  08" colors="0.766 0.38 0.9 0.14 0.8582 0.98935 0.667 0.5 0.6667 0.6 0.11469 0.859"/>
<colortri points=" 4 19  0 133  9  47" colors="0.5 0.94 0.99 0.23925 0.4984 0.4878 0.9387 0.224 0.46 0.64499 0.30641 0.39082"/>
<colortri points=" 85 10 158  8  40  8" colors="0.232 0.30 0.688 0.9613 0.27 0.3 0.08642 0.4 0.05 0.057 0.79 0.4482"/>
<colortri points=" 69 10 163 101  07  8" colors="0.15944 0.46 0.685 0.73 0.6329 0.4 0.31945 0.84 0.935 0.96636 0.56 0.7074"/>
<colortri points=" 76  1 159 182  83  02" colors="0.65565 0.07 0.00143 0.5 0.5 0.64 0.98 0.02 0.689 0.01636 0.26 0.40"/>
<colortri points=" 21 10  28 187  8 18" colors="0.8 0.5 0.91 0.859 0.0213 0.0 0.020 0.01802 0.8175 0.90625 0.856 0.943"/>
<colortri points=" 9 178 11  6 105  54" colors="0.4507 0.78638 0.36473 0.5 0.82 0.5 0.7725 0.416 0.34953 0.608 0.9 0.597"/>
<colortri points=" 0 131 167  17  2  12" colors="0.719 0.249 0.13 0.27597 0.4229 0.348 0.1 0.21110 0.865 0.66 0.43 0.3"/>
<colortri points="142 13 130  7  5 153" colors="0.44182 0.6 0.2340 0.84 0.608 0.6 0.95 0.926 0.132 0.82 0.90 0.5407"/>
<colortri points=" 28  8 10 129 187  91" colors="0.3255 0.5755 0.98 0.1488 0.85120 0.4 0.0 0.821 0.2 0.3 0.94167 0.9"/>
<colortri points=" 74 14 14 12  08  50" colors="0.83 0.4 0.5 0.57121 0.721 0.74442 0.84 0.09803 0.67586 0.628 0.43472 0.25"/>
<colortri points=" 91 14  1  78 141 127" colors="0.6 0.95382 0.76628 0.33 0.81 0.30 0.63 0.0 0.8 0.204 0.31429 0.359"/>
<colortri points="12  7 10  65  83  68" colors="0.52 0.3 0.100 0.1 0.49 0.790 0.75401 0.8902 0.26044 0.90 0.31210 0.3153"/>
<colortri points="18 15  7  04  62  7" colors="0.3 0.1 0.13 0.9698 0.336 0.30717 0.218 0.93873 0.766 0.87 0.95 0.3"/>
<colortri points="18 15 138 135  9  0" colors="0.059 0.327 0.3272 0.2661 0.9776 0.2578 0.70535 0.3 0.33317 0.86742 0.28 0.60"/>
<colortri points=" 32 104 163  9 12  05" colors="0.4 0.93 0.12 0.20 0.0 0.567 0.4924 0.04 0.309 0.53218 0.22 0.02"/>
<colortri points="194  0  8  4 182 14" colors="0.5818 0.8 0.9282 0.4637 0.2075 0.2 0.37114 0.752 0.13669 0.86054 0.33521 0.41"/>
<colortri points="180  3 19 11 170  3" colors="0.758 0.78572 0.23116 0.51 0.157 0.37 0.5799 0.5535 0.45928 0.5852 0.3257 0.0659"/>
<colortri points="164  1  89 138 13  17" colors="0.099 0.760 0.3 0.6151 0.46925 0.1 0.59 0.971 0.58093 0.12 0.11664 0.60"/>
<colortri points=" 2  43  65  06  7 162" colors="0.986 0.56 0.365 0.91 0.26 0.6194 0.1 0.62961 0.7042 0.4 0.137 0.01"/>
<colortri points="10 179 109 13 118  6" colors="0.33 0.57 0.108 0.8 0.2 0.4491 0.42 0.9 0.93851 0.32 0.952 0.904"/>
<colortri points=" 0  7 10  88  22 15" colors="0.666 0.25701 0.902 0.22 0.27 0.20173 0.454 0.786 0.28540 0.764 0.50 0.50318"/>
<colortri points="129 19 187 10 13 124" colors="0.446 0.9143 0.9904 0.89157 0.826 0.7 0.51 0.81652 0.22468 0.9 0.902 0.756"/>
<colortri points=" 26  6 12  8 145  4" colors="0.54222 0.0 0.43 0.8614 0.08436 0.57 0.377 0.5568 0.5 0.440 0.6 0.0438"/>
<colortri points="103  9  43 11 197 17" colors="0.20611 0.24264 0.524 0.87649 0.3380 0.95206 0.93251 0.1585 0.12 0.9 0.51 0.28447"/>
<colortri points="16  8 132  65  0  6" colors="0.928 0.8 0.29234 0.4 0.937 0.434 0.527 0.68 0.2 0.252 0.7 0.31"/>
<colortri points=" 73 13  72 133  69 151" colors="0.883 0.7 0.9687 0.578 0.56 0.849 0.60 0.230 0.116 0.3 0.2078 0.6"/>
<colortri points=" 8  8 189  56  83  85" colors="0.628 0.1737 0.917 0.81951 0.2 0.1650 0.8188 0.3868 0.79 0.7 0.7 0.58486"/>
<colortri points=" 41  7  96 134 14 14" colors="0.87 0.9 0.10538 0.6688 0.03168 0.24 0.9686 0.37770 0.29 0.6276 0.8 0.0458"/>
<colortri points=" 45  58 166  1 14 155" colors="0.4 0.4469 0.17482 0.804 0.99 0.5191 0.989 0.1 0.97325 0.322 0.0 0.8903"/>
<colortri points=" 3  52 10  44 12 15" colors="0.73 0.88514 0.1324 0.43752 0.02 0.94 0.451 0.389 0.95 0.7067 0.5 0.9"/>
<colortri points="106  79 106  7  80  68" colors="0.90235 0.30578 0.7 0.309 0.4 0.28603 0.0962 0.2034 0.64091 0.5742 0.31012 0.70380"/>
<colortri points=" 78  5 12 155  7 15" colors="0.730 0.8018 0.2637 0.9 0.31565 0.9 0.1573 0.5792 0.65 0.9 0.80 0.2"/>
<colortri points=" 83  2 111  2 124 16" colors="0.7 0.1 0.16 0.596 0.1270 0.82758 0.606 0.90451 0.19 0.704 0.0 0.29557"/>
<colortri points=" 44  51 194  0  39 165" colors="0.870 0.58 0.7334 0.6 0.2 0.67541 0.93748 0.7609 0.107 0.06 0.640 0.346"/>
<colortri points=" 0 13 182 135  13 188" colors="0.59 0.69683 0.02941 0.56181 0.32299 0.63852 0.73 0.19 0.1172 0.202 0.7418 0.167"/>
<colortri points=" 0 129  0  9 19  0" colors="0.0 0.351 0.466 0.2034 0.75 0.98160 0.25 0.673 0.1084 0.51682 0.7349 0.9"/>
<colortri points=" 39  13  8 14 16 172" colors="0.05 0.567 0.2 0.8831 0.23841 0.283 0.9412 0.8 0.1879 0.6971 0.4 0.86"/>
<colortri points="19  7  4 136  38  9" colors="0.29 0.4662 0.34 0.3912 0.04889 0.47 0.9 0.5931 0.7035 0.3087 0.20 0.0"/>
<colortri points="127 181  9 113 17  30" colors="0.5884 0.769 0.77853 0.3546 0.4 0.0626 0.44 0.5630 0.69 0.9105 0.977 0.870"/>
<colortri points="14  15  13  67  25 197" colors="0.618 0.540 0.30505 0.99 0.497 0.18 0.2 0.4613 0.5 0.9447 0.539 0.134"/>
<colortri points=" 19 12 102  47 16  7" colors="0.2 0.6 0.894 0.10 0.8121 0.80 0.29 0.9649 0.630 0.334 0.03 0.987"/>
<colortri points=" 48 128 15 115  3 12" colors="0.3 0.3 0.4 0.38055 0.88 0.1 0.5 0.70931 0.5649 0.2 0.8 0.2224"/>
<colortri points="15  54 11  1  32  5" colors="0.34 0.752 0.5495 0.07 0.71599 0.8220 0.2 0.3 0.1 0.31906 0.3318 0.3"/>
<colortri points="185 141  87 14  11  1" colors="0.501 0.78464 0.470 0.80131 0.1192 0.735 0.03 0.143 0.492 0.2435 0.8 0.5"/>
<colortri points=" 3  4  69 18 11  7" colors="0.84 0.59 0.7112 0.3206 0.3436 0.58936 0.5873 0.70 0.3 0.1372 0.37061 0.5544"/>
<colortri points="19  97 17 16  96 13" colors="0.95015 0.34207 0.69569 0.801 0.045 0.35325 0.4 0.7479 0.31878 0.2 0.13913 0.389"/>
<colortri points=" 0  73  40  4 11  4" colors="0.67 0.41009 0.8 0.495 0.503 0.00869 0.083 0.1 0.7 0.6 0.7 0.639"/>
<colortri points="12 141 17 10  08  37" colors="0.01 0.68 0.0 0.6 0.415 0.36431 0.959 0.2 0.014 0.851 0.88472 0.876"/>
<colortri points="16 191 146  5  7  3" colors="0.7 0.9 0.17 0.20 0.326 0.98 0.10 0.09892 0.6589 0.3 0.35 0.56837"/>
<colortri points=" 7  90 190 184 169  74" colors="0.86 0.1 0.852 0.60468 0.8 0.7 0.64189 0.17961 0.3079 0.2083 0.09 0.06"/>
<colortri points="142 129  97  8 193  00" colors="0.62611 0.664 0.4 0.38396 0.790 0.80487 0.67129 0.4 0.607 0.71552 0.7 0.67"/>
<colortri points="112  45  6  69  4  6" colors="0.5888 0.365 0.63945 0.6 0.12033 0.7398 0.137 0.9 0.3640 0.227 0.1577 0.4914"/>
<colortri points=" 53  70 10 11 16  66" colors="0.840 0.474 0.8091 0.94076 0.0278 0.45213 0.1518 0.17 0.04382 0.5 0.51 0.603"/>
<colortri points=" 8  67 128 15  72 147" colors="0.962 0.4 0.93 0.21812 0.62 0.9686 0.5 0.04 0.93912 0.79 0.092 0.7651"/>
<colortri points=" 8 16 141 174 100 17" colors="0.3641 0.8 0.8 0.84043 0.37 0.32849 0.46 0.393 0.87159 0.17532 0.27677 0.42"/>
<colortri points="16  4  2 13  69  4" colors="0.7736 0.3 0.7144 0.596 0.5873 0.389 0.2 0.6 0.39978 0.00 0.161 0.80716"/>
<colortri points="196 126  09 12  71 183" colors="0.29 0.40 0.8207 0.370 0.41214 0.819 0.2959 0.9746 0.5 0.031 0.56 0.2"/>
<colortri points="191  1  4 12  7  37" colors="0.2 0.2 0.908 0.54398 0.71 0.7245 0.14 0.24350 0.8079 0.437 0.58 0.45656"/>
<colortri points="13 115  04  82 11 13" colors="0.1 0.1117 0.83 0.7801 0.29558 0.3036 0.81473 0.1 0.60420 0.1 0.291 0.537"/>
<colortri points=" 54 14 158 148  0 19" colors="0.2 0.6 0.7 0.72 0.8 0.87378 0.682 0.2 0.66 0.3 0.2951 0.6"/>
<colortri points="16 160  8 13  49  5" colors="0.2 0.151 0.818 0.8 0.0568 0.02367 0.8680 0.628 0.44856 0.205 0.69230 0.88"/>
<colortri points=" 4  5  02  6  6  87" colors="0.08821 0.6400 0.52684 0.08 0.5886 0.560 0.205 0.28 0.5 0.6557 0.61881 0.03617"/>
<colortri points=" 28 14 13  72  8 199" colors="0.462 0.751 0.110 0.982 0.6909 0.33 0.1 0.12 0.6 0.354 0.1 0.8140"/>
<colortri points="13 17  80  06 109 17" colors="0.94441 0.23 0.0 0.881 0.29 0.0552 0.864 0.5 0.8731 0.64 0.52 0.5825"/>
<colortri points=" 64  21 15 12  22 167" colors="0.9 0.01 0.13423 0.069 0.8 0.9 0.533 0.14 0.5090 0.17 0.61365 0.92"/>
<colortri points="154  7  8  3  67 112" colors="0.4192 0.310 0.1121 0.274 0.4200 0.037 0.0 0.1635 0.4 0.309 0.1593 0.6"/>
<colortri points=" 27  55 171 111  83 17" colors="0.2886 0.3 0.4 0.191 0.3372 0.27 0.4 0.90 0.229 0.08 0.0222 0.6"/>
<colortri points="151 195  9 156  33 13" colors="0.9096 0.79127 0.31071 0.308 0.298 0.457 0.796 0.39907 0.8 0.96998 0.02 0.2"/>
<colortri points=" 8  95  11 17 172 15" colors="0.5983 0.7 0.1045 0.51 0.94 0.8008 0.23561 0.1 0.904 0.71 0.7289 0.0765"/>
<colortri points=" 6 18  13  6  0  36" colors="0.8 0.59309 0.90253 0.647 0.05 0.27556 0.3138 0.811 0.68445 0.7086 0.15 0.16"/>
<colortri points=" 10  7  62  2  79 14" colors="0.3711 0.65 0.610 0.91536 0.9716 0.49029 0.38 0.6576 0.6 0.8701 0.0 0.4"/>
<colortri points=" 7 16 10  83  83 13" colors="0.46 0.47 0.038 0.79335 0.7611 0.60 0.0051 0.67 0.4704 0.39 0.38222 0.8"/>
<colortri points=" 5 14  0  3  8  90" colors="0.23 0.424 0.7576 0.98 0.4 0.37 0.1073 0.03533 0.4239 0.975 0.51 0.282"/>
<colortri points=" 0 101  90  86 11 13" colors="0.49 0.3 0.7 0.0 0.61 0.214 0.09127 0.064 0.01 0.80 0.5 0.33870"/>
<colortri points=" 19 11  32  73  7  06" colors="0.37 0.5 0.3 0.577 0.84353 0.9 0.10 0.618 0.2 0.483 0.682 0.85"/>
<colortri points="136  42  34 19  9 19" colors="0.13 0.33 0.0427 0.74 0.7 0.618 0.513 0.9099 0.37 0.554 0.2522 0.5"/>
<colortri points="174 128 16 144 14 18" colors="0.9 0.656 0.87 0.7809 0.3426 0.34 0.7 0.96371 0.77675 0.299 0.282 0.957"/>
<colortri points=" 1  19 14 14  1  00" colors="0.8 0.5253 0.310 0.5153 0.65 0.49805 0.3515 0.4 0.8630 0.37824 0.742 0.7"/>
<colortri points=" 2  27  1 18  77 128" colors="0.65819 0.65786 0.0118 0.97 0.03933 0.6 0.42 0.148 0.93291 0.7770 0.3927 0.2057"/>
<colortri points=" 51  28  58  17  4  6" colors="0.1609 0.09 0.7 0.75746 0.36556 0.1266 0.9098 0.28 0.6284 0.58384 0.63 0.69"/>
<colortri points="14 15 15  73  68 148" colors="0.52 0.0480 0.8 0.82 0.9 0.9525 0.713 0.11678 0.7 0.79394 0.013 0.6"/>
<colortri points="109  7 106 18 123 13" colors="0.935 0.06 0.1057 0.641 0.40391 0.72 0.3 0.1 0.4545 0.9009 0.03 0.17214"/>
<colortri points=" 74 122 18 16  50  7" colors="0.98 0.180 0.26749 0.76874 0.87092 0.00487 0.327 0.9315 0.39 0.9847 0.93 0.87666"/>
<colortri points="11 10  28  8 18  6" colors="0.709 0.64 0.532 0.24836 0.122 0.9 0.0 0.6068 0.93 0.23011 0.464 0.0"/>
<colortri points=" 9  0 16 150 143 12" colors="0.6 0.49892 0.28049 0.88046 0.418 0.19 0.0 0.3 0.7 0.4252 0.126 0.00"/>
<colortri points="114 17 109  22 177 12" colors="0.029 0.73378 0.961 0.8918 0.311 0.6724 0.64 0.9 0.1 0.59111 0.98473 0.5018"/>
<colortri points=" 93  18  0  55 133  56" colors="0.2 0.7393 0.911 0.8116 0.71 0.75618 0.07805 0.5 0.0552 0.124 0.7493 0.2"/>
<colortri points=" 29 18 178  9 115  61" colors="0.772 0.0905 0.59 0.2872 0.31 0.94421 0.78334 0.90 0.47 0.529 0.6 0.39176"/>
<colortri points="14  6  35 145 125  06" colors="0.616 0.88961 0.135 0.91 0.0 0.164 0.331 0.55008 0.063 0.4639 0.66 0.0964"/>
<colortri points="13 10 18  9 161 13" colors="0.7 0.82310 0.7 0.13 0.08276 0.4 0.6 0.1830 0.705 0.23499 0.3843 0.233"/>
<colortri points="168  3  1  26  4 128" colors="0.37446 0.060 0.3 0.7 0.56 0.7875 0.270 0.2 0.22 0.197 0.9376 0.32644"/>
<colortri points="173  9  07  0 145 10" colors="0.412 0.9456 0.95384 0.11089 0.98 0.59 0.7 0.857 0.5 0.0651 0.52814 0.2"/>
<colortri points="140  67 115  9  8 16" colors="0.565 0.66841 0.31 0.82 0.85 0.97 0.37 0.98184 0.79 0.6 0.03101 0.92"/>
<colortri points="156  5 147  6 158  9" colors="0.126 0.8 0.514 0.07301 0.9354 0.069 0.678 0.61 0.68844 0.99180 0.09284 0.3531"/>
<colortri points="167 144  4 18 163 18" colors="0.04 0.08 0.17876 0.5 0.385 0.81 0.8840 0.2 0.2634 0.5 0.00559 0.4048"/>
<colortri points=" 84  73  12 15 13  4" colors="0.9717 0.21 0.17085 0.733 0.0 0.994 0.936 0.92188 0.3 0.9 0.683 0.802"/>
<colortri points=" 9  5 19 16 14  5" colors="0.9333 0.75 0.5 0.83 0.5 0.386 0.6 0.10924 0.52 0.1 0.6 0.54852"/>
<colortri points="166 134  23  1 154  2" colors="0.737 0.488 0.7776 0.704 0.01677 0.01857 0.97213 0.0674 0.580 0.200 0.913 0.3004"/>
<colortri points="12 17 166  6  8 122" colors="0.2 0.60511 0.2 0.467 0.52 0.6 0.9 0.5443 0.40 0.71 0.58412 0.7"/>
<colortri points=" 0 127 141  69 165 117" colors="0.683 0.65 0.831 0.620 0.01 0.2 0.6544 0.6 0.1 0.21779 0.39536 0.9522"/>
<colortri points="106  38  56 136 111 17" colors="0.9907 0.4482 0.03 0.8985 0.95 0.254 0.26972 0.6069 0.123 0.663 0.9 0.516"/>
<colortri points="10  4  25  7 199 10" colors="0.2783 0.55 0.85 0.07 0.44 0.5034 0.703 0.7 0.97313 0.00 0.39 0.2219"/>
<colortri points="16 109  3  7  17 12" colors="0.990 0.656 0.88 0.7232 0.52372 0.5 0.5 0.42476 0.03 0.789 0.272 0.8814"/>
<colortri points="135 17  5 11 17  1" colors="0.4 0.507 0.1585 0.46330 0.5632 0.99943 0.469 0.9784 0.1 0.505 0.2 0.0"/>
<colortri points=" 98  68 105 17  3  69" colors="0.5261 0.825 0.7292 0.693 0.5 0.733 0.32 0.6 0.669 0.41 0.78654 0.120"/>
<colortri points=" 80  32 179 183  4  3" colors="0.42 0.2746 0.229 0.5082 0.65824 0.9 0.1489 0.45 0.9 0.57938 0.639 0.2"/>
<colortri points=" 62 190 164  9  26  48" colors="0.2 0.039 0.0 0.25 0.02 0.3802 0.59938 0.28406 0.510 0.7540 0.1 0.23"/>
<colortri points=" 6  4  8 190 10  22" colors="0.56793 0.917 0.9895 0.95002 0.148 0.4649 0.4772 0.69313 0.97661 0.363 0.7 0.36461"/>
<colortri points=" 51 19 10 168 160 12" colors="0.417 0.44501 0.871 0.4 0.8882 0.55940 0.135 0.33 0.04869 0.1 0.58211 0.4"/>
<colortri points="116 168  16 12  14 19" colors="0.09 0.1007 0.8 0.3 0.73132 0.9674 0.6 0.32 0.0 0.6876 0.556 0.5206"/>
<colortri points=" 5 101  1  8 13  1" colors="0.8 0.44 0.840 0.301 0.9770 0.03 0.2 0.4854 0.06 0.80 0.3662 0.852"/>
<colortri points="136  3 160  4  3  94" colors="0.24 0.5159 0.1 0.33 0.532 0.60765 0.5504 0.91 0.82 0.835 0.858 0.53"/>
<colortri points="16 170 197 131 17  8" colors="0.38 0.53518 0.86670 0.2649 0.23671 0.3 0.77 0.4267 0.755 0.490 0.3221 0.7084"/>
<colortri points="102 102 13  96 142 161" colors="0.41 0.0 0.532 0.98215 0.887 0.19 0.689 0.7 0.6668 0.99954 0.0 0.401"/>
<colortri points="15 14 139  2 17  81" colors="0.3 0.86913 0.8637 0.03 0.42560 0.5 0.50 0.29 0.89 0.566 0.0964 0.5898"/>
<colortri points=" 0 14 109 138  34 144" colors="0.807 0.651 0.1295 0.829 0.62 0.54 0.3972 0.66 0.03 0.2050 0.5155 0.00345"/>
<colortri points="126 112  5  5 187  20" colors="0.5326 0.45468 0.332 0.5 0.42 0.00046 0.93 0.64867 0.5348 0.83286 0.797 0.7"/>
<colortri points=" 8  0  5 181  7 124" colors="0.61 0.85 0.166 0.4 0.817 0.85 0.93842 0.1005 0.63 0.304 0.605 0.45"/>
<colortri points="19  71 136  5  36  7" colors="0.395 0.89288 0.7 0.56403 0.583 0.18 0.002 0.2 0.93 0.5 0.475 0.896"/>
<colortri points="18 198  5 11 140  1" colors="0.35 0.12626 0.5767 0.69032 0.14 0.6 0.57197 0.12 0.886 0.461 0.417 0.57"/>
<colortri points=" 9 17  4  1 128  9" colors="0.156 0.9113 0.5 0.889 0.496 0.84430 0.672 0.6 0.614 0.60 0.80 0.95"/>
<colortri points="176  06  4 145 150  69" colors="0.23188 0.8517 0.53121 0.0 0.8 0.84559 0.06 0.4 0.838 0.0504 0.466 0.1851"/>
<colortri points="143  62 16 19 19  0" colors="0.6809 0.213 0.6786 0.06 0.30039 0.1284 0.73 0.0442 0.6 0.1 0.94 0.0698"/>
<colortri points=" 2  07  42  38 166 12" colors="0.20582 0.171 0.631 0.760 0.851 0.81 0.8382 0.21207 0.3 0.02228 0.7769 0.8601"/>
<colortri points=" 41 10  80 183  11  23" colors="0.5 0.4943 0.0 0.79 0.93 0.8 0.19795 0.74 0.3729 0.874 0.49 0.02790"/>
<colortri points=" 82  1 11 12  7  8" colors="0.23 0.5 0.2346 0.086 0.258 0.291 0.3426 0.60 0.305 0.075 0.767 0.15185"/>
<colortri points=" 8  55  17 19  04  3" colors="0.4 0.5562 0.36 0.9038 0.5 0.47 0.11 0.6 0.0 0.617 0.15368 0.86"/>
<colortri points="11 11 10  2  92 181" colors="0.3416 0.822 0.4 0.8 0.2604 0.5 0.9361 0.3573 0.72 0.06 0.4301 0.2906"/>
<colortri points="18 12 196 16  02 107" colors="0.9999 0.6 0.4097 0.76796 0.8 0.78 0.2 0.17803 0.609 0.7 0.3064 0.1"/>
<colortri points=" 98  5  83 105  4 12" colors="0.1224 0.7148 0.14942 0.984 0.309 0.5062 0.3646 0.58 0.028 0.5 0.63 0.46666"/>
<colortri points=" 67 14  7 137  7  18" colors="0.8461 0.4957 0.81922 0.0993 0.72 0.44892 0.22932 0.778 0.726 0.393 0.575 0.3237"/>
<colortri points=" 0  6  1  03  42 13" colors="0.92141 0.56471 0.7 0.7178 0.15 0.979 0.82 0.629 0.7996 0.9223 0.31394 0.054"/>
<colortri points=" 5  4  1 18  13  1" colors="0.83 0.91 0.3 0.0 0.09189 0.8 0.94823 0.23 0.33 0.92801 0.5117 0.7"/>
<colortri points="16 17 13  51  82  0" colors="0.7972 0.7138 0.1 0.624 0.0515 0.87 0.8 0.302 0.63 0.0 0.5 0.912"/>
<colortri points="17  00  2 11 11 172" colors="0.49 0.14027 0.35388 0.45 0.3 0.260 0.433 0.96 0.875 0.54114 0.65 0.7"/>
<colortri points=" 94 13 10 166 172 111" colors="0.1 0.8 0.882 0.411 0.24376 0.1288 0.7645 0.11475 0.851 0.2 0.47450 0.20701"/>
<colortri points="127  9 18  44 13  9" colors="0.0060 0.60 0.7 0.33 0.84876 0.777 0.6 0.6 0.26 0.7 0.477 0.5041"/>
<colortri points=" 69 131 13  7  41  4" colors="0.80653 0.84243 0.1010 0.587 0.48 0.8625 0.76 0.4 0.2 0.2573 0.9 0.65"/>
<colortri points=" 84 132  09  7 160  3" colors="0.4 0.788 0.62147 0.10408 0.5 0.2 0.0 0.051 0.4 0.98 0.3010 0.21"/>
<colortri points=" 31 10  07  2  0 18" colors="0.49414 0.871 0.40463 0.5756 0.32982 0.628 0.764 0.69870 0.3 0.423 0.25 0.23706"/>
<colortri points="15 14  6  45 123 182" colors="0.2058 0.0981 0.90 0.8 0.30039 0.5 0.92 0.612 0.49 0.2333 0.9 0.0812"/>
<colortri points="114 153 129 16 156  52" colors="0.640 0.0 0.00677 0.7 0.59566 0.98 0.6327 0.96 0.3211 0.62 0.48 0.882"/>
<colortri points=" 4  43 17 10  92  9" colors="0.90830 0.41861 0.562 0.619 0.8734 0.696 0.1 0.84 0.76359 0.394 0.7 0.81"/>
<colortri points="130 13 10 17 11  9" colors="0.3 0.4878 0.80365 0.52 0.7 0.9 0.0 0.4 0.9603 0.43146 0.875 0.18833"/>
<colortri points="15 18  09  71  4 196" colors="0.8 0.08062 0.4 0.65 0.06 0.133 0.25350 0.7 0.004 0.64 0.13864 0.0363"/>
<colortri points="160 103  82  58  49  50" colors="0.50303 0.16 0.999 0.03 0.2953 0.7171 0.5 0.386 0.6780 0.7344 0.3216 0.66805"/>
<colortri points="146  9 143 16 160 13" colors="0.504 0.15 0.8 0.9655 0.51846 0.4 0.4414 0.3 0.6615 0.28 0.2679 0.711"/>
<colortri points="195 173  2  10  9 178" colors="0.350 0.943 0.35 0.3 0.076 0.9887 0.3 0.2 0.72456 0.76109 0.8 0.319"/>
<colortri points=" 36 190  3  3  5  73" colors="0.4 0.08619 0.24 0.4940 0.05797 0.49 0.99 0.29 0.0 0.07 0.040 0.517"/>
<colortri points="157  20  7  2 10  1" colors="0.8 0.05 0.583 0.35542 0.6810 0.8719 0.1 0.38 0.558 0.9465 0.5604 0.6452"/>
<colortri points=" 70 17 138  96  95  1" colors="0.6464 0.9 0.864 0.2 0.1699 0.6358 0.776 0.0 0.4 0.444 0.18343 0.71"/>
<colortri points="163  16 142  9 146  17" colors="0.4 0.358 0.2762 0.76 0.0 0.8 0.85 0.6000 0.1341 0.8 0.49 0.1"/>
<colortri points="15 11  92 143 176  8" colors="0.02 0.89225 0.476 0.63 0.0 0.68 0.5408 0.7887 0.8354 0.45000 0.3412 0.8"/>
<colortri points=" 2 18  94  82 128 127" colors="0.9 0.72 0.345 0.0 0.1557 0.6 0.389 0.3336 0.3 0.4 0.17 0.89"/>
<colortri points=" 52  8 111 17 15 154" colors="0.02 0.907 0.769 0.75 0.1158 0.0 0.93053 0.7 0.94 0.79621 0.06 0.49263"/>
<colortri points="123  3  53  07 19 13" colors="0.899 0.3 0.2684 0.0362 0.25593 0.2 0.845 0.15149 0.085 0.3 0.3967 0.7"/>
<colortri points="19  20 13  66  4  8" colors="0.19 0.35994 0.8823 0.9984 0.2901 0.1 0.129 0.47 0.71530 0.205 0.0569 0.407"/>
<colortri points=" 07 16 125  85  8 144" colors="0.99 0.2699 0.2 0.724 0.08 0.536 0.0 0.9987 0.78628 0.2483 0.17 0.716"/>
<colortri points=" 73  2  80  4 11 121" colors="0.838 0.70915 0.2 0.00 0.536 0.44938 0.63 0.842 0.46 0.07872 0.5695 0.4997"/>
<colortri points="11  3 11 112  9 136" colors="0.0508 0.7761 0.42 0.33 0.0 0.0 0.24 0.36 0.5074 0.1549 0.51501 0.18667"/>
<colortri points=" 56  7  0 161 159 177" colors="0.681 0.78 0.791 0.5 0.566 0.148 0.97 0.3206 0.34920 0.1116 0.7 0.380"/>
<colortri points=" 72 17  65  60 122  75" colors="0.953 0.64 0.8168 0.0 0.2 0.68817 0.00826 0.445 0.901 0.01941 0.30251 0.6083"/>
<colortri points=" 1 113 167  9 19  17" colors="0.8060 0.25 0.03 0.85 0.59238 0.2 0.182 0.3215 0.7914 0.6526 0.31 0.65"/>
<colortri points="13 18  46  7  49  3" colors="0.9605 0.7350 0.778 0.69681 0.58497 0.86587 0.882 0.8918 0.1 0.54974 0.849 0.04"/>
<colortri points="13 17  8 151 12  5" colors="0.66 0.19467 0.88319 0.02 0.2259 0.82763 0.278 0.025 0.59553 0.46692 0.66340 0.807"/>
<colortri points=" 19  11  8  6  5 15" colors="0.3 0.05863 0.7230 0.69597 0.21 0.8246 0.9735 0.43 0.643 0.92 0.72 0.918"/>
<colortri points=" 0 10 12  2  21  56" colors="0.6 0.77718 0.41172 0.0 0.29 0.06174 0.9469 0.43546 0.49456 0.68 0.99585 0.473"/>
<colortri points="110  4  8 104 130 19" colors="0.66327 0.5571 0.72067 0.4627 0.4 0.3763 0.60672 0.27356 0.9911 0.40 0.17665 0.1809"/>
<colortri points="13 12  58 12  45  53" colors="0.669 0.65051 0.4 0.4867 0.7 0.062 0.4569 0.2469 0.445 0.375 0.975 0.4756"/>
<colortri points=" 97 134 181  3  4  13" colors="0.6477 0.13297 0.21 0.9326 0.740 0.41 0.49651 0.03889 0.3210 0.96543 0.1 0.45437"/>
<colortri points=" 56 17  51 134  3  37" colors="0.54528 0.14 0.99 0.5521 0.4965 0.321 0.258 0.7 0.4 0.42506 0.5538 0.316"/>
<colortri points=" 11  52 116 15 13  1" colors="0.58 0.243 0.65351 0.92530 0.9 0.1 0.08 0.66 0.8 0.89457 0.19 0.99537"/>
<colortri points="124 15  28  21  3 17" colors="0.21486 0.3516 0.2370 0.88020 0.49 0.6137 0.8 0.6144 0.00855 0.3 0.79614 0.4"/>
<colortri points=" 2  8  4 11  4  7" colors="0.600 0.07614 0.50013 0.1558 0.34243 0.28 0.9378 0.38 0.5 0.5205 0.4 0.4877"/>
<colortri points=" 8  9 14 19 10  11" colors="0.44233 0.90948 0.47667 0.59 0.79 0.087 0.85 0.40 0.0248 0.32679 0.62 0.8088"/>
<colortri points=" 45  3 182  2 11 109" colors="0.906 0.39 0.60610 0.0 0.28174 0.3406 0.34 0.65 0.4451 0.5319 0.98 0.36"/>
<colortri points=" 79  4  72 13  76 11" colors="0.90731 0.5 0.8 0.48 0.27297 0.6103 0.7 0.97 0.3697 0.99427 0.01 0.2004"/>
<colortri points="14  79  92  16  02 12" colors="0.954 0.8 0.0393 0.98817 0.50 0.25 0.0132 0.6369 0.4663 0.30575 0.33915 0.3514"/>
<colortri points="13 15  36 18 112  95" colors="0.3 0.3633 0.84 0.9 0.222 0.762 0.4730 0.0 0.0 0.22293 0.75758 0.1"/>
<colortri points="10 147 11 12  45 105" colors="0.55 0.9300 0.5 0.5462 0.684 0.971 0.74 0.2014 0.020 0.7366 0.27 0.39056"/>
<colortri points=" 2  37  9  4  7  06" colors="0.211 0.1 0.43 0.68119 0.72948 0.48 0.8587 0.829 0.9777 0.5 0.734 0.3686"/>
<colortri points=" 23  26  64 19 16  26" colors="0.49 0.1 0.9039 0.2463 0.2 0.23232 0.790 0.28 0.77 0.8280 0.177 0.309"/>
<colortri points="10  9 196  2  1  2" colors="0.05 0.8 0.34988 0.2 0.6034 0.1712 0.88930 0.5790 0.6916 0.82110 0.51663 0.9926"/>
<colortri points=" 89 178  61 153 19 183" colors="0.8376 0.05594 0.935 0.01 0.156 0.010 0.5686 0.5 0.30279 0.0 0.8282 0.667"/>
<colortri points="14 16  4 152 116  4" colors="0.42578 0.0065 0.36662 0.43 0.3 0.059 0.23 0.2287 0.067 0.87 0.97886 0.8956"/>
<colortri points="195 112 179  61  9  53" colors="0.2447 0.6049 0.8 0.0 0.6635 0.6 0.5 0.94 0.58211 0.3442 0.7013 0.782"/>
<colortri points=" 3  13  5  13 19 151" colors="0.3884 0.68538 0.2047 0.983 0.5882 0.39169 0.86433 0.639 0.7354 0.69 0.947 0.40585"/>
<colortri points="12 188 155 14 11 135" colors="0.20321 0.86038 0.00826 0.4898 0.74643 0.9 0.537 0.4 0.2 0.80104 0.3380 0.39"/>
<colortri points=" 84 17  3 17  07  63" colors="0.96 0.19872 0.2079 0.00 0.5 0.6735 0.8 0.08580 0.41 0.59 0.61 0.647"/>
<colortri points="16 19 186 17 12 12" colors="0.166 0.7 0.33553 0.8574 0.3683 0.01 0.08 0.3 0.1 0.085 0.15 0.82321"/>
<colortri points=" 48 13 16 157 11 11" colors="0.816 0.9197 0.9624 0.78619 0.2 0.38 0.88939 0.18367 0.3 0.15 0.86842 0.039"/>
<colortri points="19 12  1 199 153  6" colors="0.020 0.63378 0.43 0.02912 0.8667 0.8405 0.379 0.6093 0.87542 0.423 0.6241 0.929"/>
<colortri points="14 116  6  40 19 18" colors="0.0 0.47096 0.7 0.25379 0.8208 0.423 0.72971 0.15 0.2 0.1 0.2 0.141"/>
<colortri points="17  04  07  99  6  6" colors="0.7784 0.49685 0.744 0.5 0.1 0.313 0.79320 0.58598 0.057 0.36 0.07870 0.2236"/>
<colortri points=" 1  9  7 11 11  62" colors="0.54955 0.13930 0.5214 0.03701 0.2837 0.616 0.89444 0.36579 0.6 0.0 0.8614 0.230"/>
<colortri points=" 2 14 177 158  84 124" colors="0.067 0.2764 0.9 0.58 0.03463 0.0914 0.75771 0.271 0.12 0.4 0.1005 0.7"/>
<colortri points="10  34 12  21  5 135" colors="0.7 0.74481 0.900 0.3045 0.832 0.18 0.772 0.9026 0.69 0.36 0.65514 0.6"/>
<colortri points="12  1  5  95  27  26" colors="0.11692 0.44 0.1837 0.1366 0.68 0.624 0.42025 0.20 0.35 0.3 0.4 0.72139"/>
<colortri points="11  6  66 102 15  87" colors="0.841 0.05205 0.5 0.82 0.38481 0.0 0.01359 0.3 0.11305 0.2272 0.124 0.06701"/>
<colortri points="199  82 138  51  82  94" colors="0.58 0.7435 0.9 0.871 0.1 0.77 0.3 0.47 0.656 0.72024 0.3 0.820"/>
<colortri points=" 41  3 14 11  1  83" colors="0.9136 0.777 0.8850 0.89 0.2 0.7245 0.04 0.65568 0.657 0.64144 0.99932 0.01319"/>
<colortri points=" 4  16 198  37 159 14" colors="0.18 0.88 0.21 0.85083 0.8640 0.34 0.508 0.8 0.6 0.3 0.6287 0.47"/>
<colortri points="10 140  36 187  39  9" colors="0.617 0.35617 0.077 0.7 0.316 0.6570 0.4122 0.92 0.89777 0.02882 0.09466 0.8012"/>
<colortri points=" 59  06 13 111 12  17" colors="0.02198 0.86471 0.44 0.12198 0.54899 0.26583 0.7 0.9 0.6 0.9019 0.73053 0.7"/>
<colortri points=" 87 13 122  4 12  8" colors="0.5 0.9821 0.275 0.8477 0.1 0.0 0.50540 0.0 0.31 0.93475 0.659 0.5"/>
<colortri points=" 98  8  83  9 13  0" colors="0.39513 0.93603 0.79 0.9217 0.42200 0.029 0.4850 0.9 0.585 0.5 0.5 0.79149"/>
<colortri points=" 95  25 17  66 10 12" colors="0.016 0.6649 0.7 0.56 0.0 0.02 0.3000 0.7 0.364 0.185 0.4636 0.946"/>
<colortri points=" 33 192  0  23 15 150" colors="0.880 0.8 0.76682 0.4674 0.2022 0.5 0.45845 0.26908 0.43 0.5 0.8 0.38"/>
<colortri points=" 31 17  92  8 157 117" colors="0.0172 0.64134 0.392 0.4 0.0715 0.7814 0.5074 0.6 0.517 0.60 0.707 0.7315"/>
<colortri points=" 61 175 104 11  08 146" colors="0.10201 0.0594 0.10014 0.251 0.26157 0.1060 0.0 0.932 0.7 0.05 0.64 0.41"/>
<colortri points="178 134  7  95  52 124" colors="0.9 0.780 0.27 0.9094 0.3 0.025 0.5 0.409 0.8035 0.08952 0.10 0.09"/>
<colortri points="162 16 132  6 17  3" colors="0.211 0.7 0.11091 0.5830 0.87925 0.53548 0.430 0.3182 0.3405 0.524 0.15725 0.348"/>
<colortri points="11  04  92 15 177 13" colors="0.83207 0.0 0.79385 0.6 0.68 0.41416 0.85227 0.7889 0.298 0.6912 0.6 0.04300"/>
<colortri points=" 0  8  6 102  84  4" colors="0.45689 0.759 0.83593 0.3291 0.08318 0.093 0.45633 0.1 0.07889 0.20518 0.26493 0.19838"/>
<colortri points="191  55 131 178  34 105" colors="0.10 0.9101 0.1715 0.176 0.2707 0.16572 0.5 0.5 0.016 0.5850 0.3 0.5"/>
<colortri points=" 68  8  11  3 116 130" colors="0.5840 0.66 0.23681 0.64138 0.335 0.4 0.66549 0.49624 0.8 0.48702 0.16 0.75480"/>

</svg>